<svg xmlns="http://www.w3.org/2000/svg" viewBox="0 0 500 750.07"><defs><style>.cls-1{fill:#322418;}</style></defs><g id="Layer_2" data-name="Layer 2"><g id="Layer_1-2" data-name="Layer 1"><path class="cls-1" d="M105.14,30.6A43.53,43.53,0,0,1,92.41.07H15L134.44,119.5l29.8-29.8ZM176.64.07v0a41.7,41.7,0,0,1-12.4,29.8l-14.9,14.9,29.9,29.8,14-14A86.19,86.19,0,0,0,218.54.07Z"/><path class="cls-1" d="M119.54,134.3,59.84,194A84.13,84.13,0,0,1,0,218.75V176.57A42.06,42.06,0,0,0,29.94,164.2l59.7-59.7Z"/><polygon class="cls-1" points="29.92 44.79 0 74.71 0 15.03 0.08 14.95 29.92 44.79"/><path class="cls-1" d="M500,176.57v42.18A84.2,84.2,0,0,1,440.44,194l-14.9-14.9,29.8-29.8,14.9,14.9A42.06,42.06,0,0,0,500,176.57Z"/><polygon class="cls-1" points="500 15.03 500 74.71 410.56 164.14 380.72 134.3 500 15.03"/><path class="cls-1" d="M450.24,0V.07a84.41,84.41,0,0,1-84.4,84.33,84.53,84.53,0,0,1-59.7-24.7A84.55,84.55,0,0,1,281.44.07h42.21c.45,22.72,18.48,41.74,41.29,42.13a41.92,41.92,0,0,0,30.7-12.4A42.21,42.21,0,0,0,408,.07V0Z"/><path class="cls-1" d="M139.54,330.2h0a21.1,21.1,0,1,1,21.1,21.1A21,21,0,0,1,139.54,330.2Z"/><path class="cls-1" d="M444.94,316.1a84.53,84.53,0,0,0-142.1,37L272,322.3a84.41,84.41,0,1,0-81.3-141.5c-33.4,33.1-32.6,87.4.7,120.7l193,193,29.8-29.8-59.1-59.1c-16.3-16.3-17.2-43-1.2-59.7a42.18,42.18,0,1,1,60.3,59l-14.9,14.9,29.9,29.8,14-14C476,402.8,477.34,349.4,444.94,316.1Zm-227-48.1a42.2,42.2,0,0,1,32.2-69.5,42.2,42.2,0,0,1,0,84.4A42.23,42.23,0,0,1,217.94,268Z"/><path class="cls-1" d="M369.54,509.3,309.84,569a84.38,84.38,0,0,1-119.4,0l-14.9-14.9,29.8-29.8,14.9,14.9a42.19,42.19,0,0,0,59.7,0l59.7-59.7Z"/><rect class="cls-1" x="120.92" y="443.45" width="168.8" height="42.2" transform="translate(-268.35 281.25) rotate(-45)"/><path class="cls-1" d="M200.24,375a84.4,84.4,0,1,1-84.4-84.4l-.8,42.2a41.42,41.42,0,0,0-41.4,41.4c0,23.1,18.2,42.6,41.3,43A42.35,42.35,0,0,0,158,375Z"/><path class="cls-1" d="M194.94,691.1a84.53,84.53,0,0,0-142.1,37L22,697.3a84.38,84.38,0,0,0,40.5-24.6,84.59,84.59,0,0,0-.2-114A84.23,84.23,0,0,0,0,531.39V573.5H.14a41.7,41.7,0,0,1,29.8,12.4,42.12,42.12,0,0,1,12.4,29.8,41.7,41.7,0,0,1-12.4,29.8A42.12,42.12,0,0,1,.14,657.9H0v77.16l15,15h77.4a42,42,0,0,1,71.83-29.77,42.13,42.13,0,0,1,12.4,29.77h41.9A83.34,83.34,0,0,0,194.94,691.1Z"/><path class="cls-1" d="M389.54,705.2h0a21.1,21.1,0,1,1,21.1,21.1A21,21,0,0,1,389.54,705.2Z"/><path class="cls-1" d="M500,573.5V531.39a84.26,84.26,0,0,0-59.26,24.41c-33.4,33.1-32.6,87.4.7,120.7L500,735.06V657.9a42.2,42.2,0,0,1,0-84.4Z"/><path class="cls-1" d="M365.84,665.6l-.8,42.2a41.42,41.42,0,0,0-41.4,41.4c0,.29,0,.58,0,.87H281.44V750A84.42,84.42,0,0,1,365.84,665.6Z"/><rect class="cls-1" x="408.04" y="750" width="42.2" height="0.07"/></g></g></svg>